<svg width="47" height="46" viewBox="0 0 47 46" fill="none" xmlns="http://www.w3.org/2000/svg">
<path d="M34.825 0.805786H11.7906C5.42687 0.805786 0.251129 5.98829 0.251129 12.3604V33.4615C0.251129 39.8336 5.42687 45.0161 11.7906 45.0161H34.825C41.1887 45.0161 46.3644 39.8336 46.3644 33.4615V12.3604C46.3644 5.98829 41.1887 0.805786 34.825 0.805786ZM4.32142 12.3604C4.32142 8.23602 7.67165 4.88139 11.7906 4.88139H34.825C38.944 4.88139 42.2942 8.23602 42.2942 12.3604V33.4615C42.2942 37.5859 38.944 40.9405 34.825 40.9405H11.7906C7.67165 40.9405 4.32142 37.5859 4.32142 33.4615V12.3604Z" fill="#D1D8E0"/>
<path d="M23.3089 33.6608C29.2279 33.6608 34.0436 28.8388 34.0436 22.912C34.0436 16.9852 29.2279 12.1632 23.3089 12.1632C17.3899 12.1632 12.5741 16.9852 12.5741 22.912C12.5741 28.8388 17.3899 33.6608 23.3089 33.6608ZM23.3089 16.2409C26.9831 16.2409 29.9712 19.233 29.9712 22.912C29.9712 26.5911 26.9831 29.5831 23.3089 29.5831C19.6347 29.5831 16.6465 26.5911 16.6465 22.912C16.6465 19.233 19.6347 16.2409 23.3089 16.2409Z" fill="#D1D8E0"/>
<path d="M35.0388 13.8977C36.6335 13.8977 37.9317 12.5978 37.9317 11.0011C37.9317 9.40436 36.6335 8.10449 35.0388 8.10449C33.4442 8.10449 32.1461 9.40436 32.1461 11.0011C32.1461 12.5978 33.4442 13.8977 35.0388 13.8977Z" fill="#D1D8E0"/>
</svg>
