<svg width="43" height="43" viewBox="0 0 43 43" fill="none" xmlns="http://www.w3.org/2000/svg">
<path d="M2.41208 9.15555C1.43157 8.24373 0.942291 7.11564 0.942291 5.77336C0.942291 4.43109 1.43157 3.25207 2.41208 2.34026C3.39258 1.42844 4.65472 0.972534 6.20277 0.972534C7.75082 0.972534 8.96213 1.42844 9.94051 2.34026C10.921 3.25207 11.4102 4.39716 11.4102 5.77336C11.4102 7.14957 10.921 8.24373 9.94051 9.15555C8.96001 10.0674 7.71481 10.5233 6.20277 10.5233C4.69072 10.5233 3.39258 10.0674 2.41208 9.15555ZM10.5843 14.3847V42.3265H1.76828V14.3847H10.5843Z" fill="#D1D8E0"/>
<path d="M39.9379 17.1435C41.8587 19.2322 42.8201 22.1013 42.8201 25.7528V41.8346H34.4446V26.8872C34.4446 25.0466 33.9681 23.6153 33.0151 22.5953C32.0621 21.5754 30.7809 21.0665 29.1715 21.0665C27.562 21.0665 26.2808 21.5775 25.3278 22.5953C24.3749 23.6153 23.8984 25.0466 23.8984 26.8872V41.8346H15.474V14.3084H23.8984V17.9599C24.7518 16.7428 25.9017 15.7822 27.3481 15.0739C28.7924 14.3678 30.4188 14.0137 32.2252 14.0137C35.4441 14.0137 38.0151 15.0591 39.9358 17.1456L39.9379 17.1435Z" fill="#D1D8E0"/>
</svg>
