<?xml version="1.0" standalone="no"?>
<!DOCTYPE svg PUBLIC "-//W3C//DTD SVG 20010904//EN"
 "http://www.w3.org/TR/2001/REC-SVG-20010904/DTD/svg10.dtd">
<svg version="1.0" xmlns="http://www.w3.org/2000/svg"
 width="512.000000pt" height="512.000000pt" viewBox="0 0 512.000000 512.000000"
 preserveAspectRatio="xMidYMid meet">

<g transform="translate(0.000000,512.000000) scale(0.100000,-0.100000)"
fill="#000000" stroke="none">
<path d="M2350 3935 c-158 -27 -331 -80 -445 -137 -173 -87 -392 -263 -493
-398 -64 -84 -162 -242 -162 -260 0 -43 -113 39 -200 144 -35 42 -64 76 -66
76 -13 0 -124 -77 -124 -86 0 -37 149 -192 250 -259 149 -99 278 -136 586
-170 165 -18 258 -42 372 -95 110 -52 191 -111 278 -202 79 -83 129 -172 184
-327 18 -50 37 -90 43 -88 5 1 16 28 24 57 32 126 85 264 122 318 60 89 165
181 255 225 80 39 117 49 456 131 289 70 548 161 648 228 23 16 65 52 92 79
52 52 106 144 91 153 -10 7 -132 46 -142 46 -4 0 -12 -13 -18 -29 -18 -43 -78
-95 -160 -140 -41 -23 -77 -41 -80 -41 -3 0 -22 30 -41 68 -52 100 -138 208
-249 314 -279 265 -644 411 -1022 407 -68 -1 -158 -7 -199 -14z m370 -156
c240 -29 485 -135 673 -291 109 -89 307 -330 307 -373 0 -12 -202 -73 -360
-109 -328 -74 -418 -105 -525 -181 -68 -49 -201 -183 -231 -233 -10 -18 -23
-32 -29 -32 -5 0 -23 19 -40 41 -44 60 -169 174 -234 214 -212 130 -337 170
-631 200 -141 15 -222 27 -258 40 -29 10 103 206 227 338 147 156 375 291 595
353 149 42 339 54 506 33z"/>
<path d="M1227 2803 c-14 -14 -7 -560 8 -675 56 -413 277 -710 642 -859 106
-44 169 -60 338 -84 94 -13 224 -15 905 -13 l795 3 3 205 c2 113 0 481 -3 818
l-7 613 -77 -3 -76 -3 0 -733 0 -732 -730 0 c-882 0 -936 5 -1133 96 -286 132
-438 346 -494 689 -8 53 -12 178 -12 375 1 205 -2 297 -10 302 -14 10 -140 10
-149 1z"/>
</g>
</svg>
