<svg width="1362" height="337" viewBox="0 0 1362 337" fill="none" xmlns="http://www.w3.org/2000/svg">
<path d="M60.5936 151.03C72.3506 149.903 82.2988 145.395 82.2988 134.124C82.2988 117.217 69.6374 117.217 60.5936 116.09C43.4104 117.217 41.6016 125.107 37.9841 139.759H4.52191C7.23506 90.1672 36.1753 82.2776 60.5936 82.2776C86.8207 82.2776 116.665 91.2943 116.665 128.488V227.672C116.665 236.689 118.474 240.07 123.9 244.579V251.341H85.9164C84.1076 245.706 84.1076 238.943 83.2032 232.181C72.3506 246.833 57.8805 256.977 41.6016 256.977C17.1833 256.977 0 240.07 0 207.385C0 158.92 32.5578 154.411 60.5936 151.03ZM83.2032 171.318C68.7331 183.716 35.2709 175.826 35.2709 205.13C36.1753 219.783 41.6016 225.418 52.4542 225.418C77.7769 219.783 84.1076 210.766 83.2032 171.318ZM336.43 147.649V252.468H301.159V146.522C301.159 130.742 292.116 119.472 281.263 119.472C263.175 122.853 260.462 134.124 258.653 153.284V252.468H223.382V153.284C224.287 134.124 219.765 119.472 204.39 119.472C181.781 120.599 181.781 134.124 181.781 152.157V252.468H146.51V86.786H179.972V110.455C188.112 92.4215 198.964 82.2776 217.956 82.2776C236.948 82.2776 246.896 91.2943 254.131 110.455C263.175 90.1673 278.55 82.2776 294.829 82.2776C329.195 85.6589 338.239 114.963 336.43 147.649ZM392.502 180.334C392.502 206.258 404.259 222.037 422.347 222.037C435.008 220.91 442.243 214.147 445.861 202.876H481.132C476.61 232.181 454 256.977 421.442 256.977C409.685 256.977 357.231 252.468 357.231 170.191C357.231 105.947 387.98 82.2776 419.633 82.2776C453.096 82.2776 482.94 102.565 482.036 180.334H392.502ZM393.406 152.157H447.669C447.669 132.997 435.912 117.217 420.538 117.217C401.546 117.217 395.215 134.124 394.311 152.157H393.406ZM582.422 82.2776V126.234C563.43 125.107 539.916 122.853 539.916 172.445V251.341H505.55V85.6589H538.108V114.963C550.769 86.7859 563.43 81.1505 581.518 82.2776H582.422ZM603.223 85.6589H638.494V251.341H603.223V85.6589ZM751.542 145.395C748.829 126.234 739.785 118.345 728.932 118.345C704.514 118.345 701.801 147.649 701.801 171.318C701.801 202.876 709.94 220.91 728.028 220.91C744.307 219.783 747.924 213.02 751.542 191.605H786.813C782.291 231.053 761.49 256.977 727.124 256.977C684.618 255.849 665.625 224.291 665.625 171.318C665.625 111.582 690.044 82.2777 728.028 81.1505C769.629 81.1505 785.004 107.074 787.717 144.268L751.542 145.395ZM862.781 151.03C873.633 149.903 883.582 145.395 883.582 134.124C883.582 117.217 870.92 117.217 861.876 116.09C844.693 117.217 842.885 125.107 840.171 139.759H805.805C808.518 99.1839 828.414 82.2776 863.685 82.2776C889.912 82.2776 918.853 93.5485 918.853 129.615V227.672C918.853 236.689 920.661 240.07 926.088 244.579V251.341H888.104C886.295 244.579 886.295 237.816 885.391 232.181C873.633 246.833 860.972 256.977 843.789 256.977C818.466 255.849 802.187 240.07 802.187 207.385C803.092 170.191 821.179 155.538 862.781 151.03ZM883.582 171.318C876.347 176.953 867.303 179.207 860.068 180.334C845.598 181.461 836.554 187.097 836.554 204.003C837.458 219.783 843.789 225.418 853.737 225.418C879.06 219.783 886.295 207.385 883.582 171.318ZM1068.98 140.886V252.468H1033.71V151.03C1034.61 131.87 1029.19 118.345 1012 118.345C990.299 118.345 984.872 140.886 984.872 162.301V252.468H949.602V86.786H983.968V110.455C992.108 92.4215 1004.77 82.2776 1023.76 82.2776C1049.08 83.4047 1068.98 94.6756 1068.98 140.886ZM1152.18 116.09C1137.71 117.217 1131.38 122.853 1129.57 139.759H1096.11C1098.82 99.1839 1118.72 82.2776 1153.09 82.2776C1173.89 82.2776 1209.16 86.7859 1209.16 134.124V231.053C1210.06 233.308 1209.16 240.07 1215.49 245.706V252.468H1178.41C1175.7 245.706 1175.7 238.943 1174.79 232.181C1163.94 247.96 1151.28 256.977 1134.1 258.104C1110.58 258.104 1092.49 240.07 1092.49 208.512C1093.4 169.064 1111.49 160.047 1141.33 153.284C1155.8 152.157 1174.79 149.903 1174.79 135.251C1174.79 117.217 1163.04 117.217 1152.18 116.09ZM1150.37 180.334C1140.43 181.461 1126.86 185.97 1126.86 204.003C1126.86 222.037 1136.81 224.291 1144.04 225.418C1167.56 223.164 1174.79 209.639 1174.79 171.318C1166.65 176.953 1157.61 179.207 1150.37 180.334ZM1266.14 199.495C1267.94 223.164 1282.41 224.291 1294.17 224.291C1305.93 224.291 1315.88 219.783 1315.88 208.512C1316.78 192.733 1295.08 192.732 1275.18 184.843C1256.19 179.207 1233.58 170.191 1234.48 137.505C1236.29 94.6756 1264.33 82.2776 1289.65 82.2776C1327.63 82.2776 1345.72 101.438 1347.53 136.378H1313.16C1311.35 120.599 1303.22 114.963 1289.65 114.963C1275.18 114.963 1267.94 120.599 1267.94 128.488C1267.94 142.013 1278.8 142.013 1309.55 152.157C1334.87 160.047 1350.24 174.699 1351.15 201.749C1349.34 244.579 1324.92 258.104 1291.46 258.104C1253.47 258.104 1231.77 237.816 1230.86 199.495H1266.14ZM0.904378 0V40.5753H1362V0H0.904378ZM0.904378 296.425V337H1362V296.425H0.904378Z" fill="white"/>
</svg>
