<svg width="1279" height="707" viewBox="0 0 1279 707" fill="none" xmlns="http://www.w3.org/2000/svg">
<path d="M172.365 138.421H1170.33L1170.96 141.211L1168.46 160.18L1162.84 195.329L1159.09 219.878L1154.72 248.332L1149.73 280.133L1144.73 313.051L1141.61 333.136L1136.61 364.938L1129.12 413.477L1125.37 438.025L1119.12 477.08L1118.5 483.217L1117.88 484.891L1116.63 485.449H595.784L594.535 482.101L589.539 454.205L585.792 434.12L580.796 406.782L574.551 371.633L570.804 350.99L565.808 323.651L560.812 295.755L556.44 271.764L552.693 251.679L547.072 219.878L542.076 192.539L537.705 167.433V164.643L534.582 167.433L525.839 180.823L517.72 193.097L508.353 207.603L502.107 217.088L493.989 229.362L485.87 242.195L478.376 253.353L467.759 269.533L450.273 296.313L440.905 310.819L430.913 325.883L422.17 339.273L411.553 355.453L402.186 369.959L394.067 382.233L384.699 396.739L376.581 409.014L365.964 425.193L357.221 438.583L346.604 454.763L338.485 467.037L329.742 480.428L326.62 484.891L325.995 485.449H117.408L116.159 484.891L117.408 478.754L123.029 444.721L126.151 424.077L131.147 392.276L136.768 356.011L141.764 324.209L151.132 264.511L156.752 228.246L169.867 144.558L171.116 139.537L172.365 138.421ZM212.958 178.591L211.709 184.171L206.089 223.783L202.966 243.868L199.219 269.533L195.472 294.081L192.974 313.051L189.852 333.136L184.855 367.727L182.357 383.349L177.361 418.498L174.863 434.12L172.99 447.51V451.974H250.429L257.923 405.108L261.67 379.444L267.291 343.737L267.916 340.947L367.837 340.389L370.96 324.767L375.332 294.081L376.581 284.597H275.41L278.532 268.417L282.279 239.963L282.904 238.289L404.059 237.731L405.933 234.942L408.431 221.551L413.427 194.213L415.925 180.265L415.3 178.591H212.958ZM878.063 178.591L871.818 213.74L868.696 235.499V237.173L876.814 237.731H951.756L951.131 238.847L945.511 279.575L942.388 298.545L938.641 324.209L934.27 352.663L930.522 377.212L926.151 406.782L921.155 438.583L919.281 449.184V451.974H998.594L1001.09 440.257L1003.59 425.751L1007.96 395.623L1011.08 376.654L1014.83 350.432L1018.58 326.999L1022.33 301.334L1026.7 272.88L1029.2 255.027L1032.32 237.173L1039.19 237.731H1107.26L1109.13 236.615L1111.01 226.015L1115.38 195.329L1117.88 181.939V178.591H878.063ZM742.544 179.149L726.307 180.265L711.319 182.497L696.331 186.96L686.338 191.424L676.346 197.561L669.477 202.582L663.856 207.603L658.86 213.183L651.99 223.225L646.37 233.826L643.247 242.195L641.374 252.795L640.749 259.49V266.185L641.998 276.228L644.496 285.155L650.117 295.755L655.113 301.892L660.733 307.472L666.354 312.493L676.971 319.188L688.836 325.325L701.951 330.904L716.939 335.926L739.422 342.621L750.039 346.526L758.157 350.432L763.778 354.337L768.149 358.8L770.647 363.822L771.896 369.959L771.272 377.212L768.774 383.349L764.402 389.486L758.157 394.508L751.288 397.297L742.544 398.971H727.556L718.813 397.297L711.319 393.95L705.698 389.486L701.327 383.907L698.204 377.212L695.706 369.959L694.457 360.474V353.779L686.338 356.569L668.228 364.38L650.741 371.633L620.14 385.023L619.516 386.139L623.887 399.529L629.508 410.687L635.128 419.614L640.749 426.309L645.745 430.772L654.488 436.352L667.603 442.489L685.089 447.51L695.082 449.184L717.564 451.416L725.058 451.974H741.295L755.659 450.858L770.647 448.626L780.64 445.836L790.007 442.489L798.75 438.583L809.992 431.888L818.735 425.193L824.355 420.172L831.225 412.361L835.597 406.224L840.593 398.413L846.838 384.465L849.96 371.633L851.209 363.822V346.526L849.336 335.368L846.213 326.441L841.217 317.514L834.972 309.703L826.229 301.892L816.861 295.755L804.996 289.618L791.881 284.039L772.521 277.344L749.414 270.649L736.924 267.301L725.683 262.838L720.687 259.49L716.939 253.911L716.315 252.237V246.658L719.438 239.405L723.809 234.384L730.054 231.036L737.548 228.804H751.288L761.28 231.036L767.525 233.826L770.647 236.057L775.019 241.637L777.517 246.1L780.015 257.258V263.396L785.011 262.838L791.881 260.048L814.988 251.679L833.099 244.984L850.585 238.847L853.708 237.731L853.083 232.152L848.711 220.436L844.34 212.625L839.968 207.045L834.348 201.466L828.103 196.445L819.984 191.981L811.241 188.076L794.379 183.055L780.64 180.823L766.9 179.707L755.659 179.149H742.544Z" fill="white"/>
<path d="M504.605 318.072H505.854L507.104 324.767L510.226 343.178L515.222 369.401L519.594 392.276L523.341 412.361L536.456 480.985L551.444 560.21L557.064 589.222L558.938 598.149V600.939L320.375 601.497L319.75 600.381L326.62 589.78L344.106 563L354.723 546.82L363.466 533.43L369.711 523.945L379.703 508.881L385.324 499.955L393.442 487.68L400.312 477.08L406.557 467.595L414.676 455.321L424.043 440.815L430.289 431.33L437.158 420.73L445.277 408.455L454.02 395.065L464.012 380.001L469.633 371.074L479 357.126L487.744 343.178L493.364 334.809L502.107 321.419L504.605 318.072Z" fill="#7B7B7B"/>
<path d="M911.163 537.894H924.277L930.522 539.567L936.143 542.915L939.89 547.936L941.139 550.726V562.442L938.017 578.064L934.894 585.317L931.147 590.338L928.024 593.128L924.902 595.36L917.408 598.149L910.538 599.265H903.044L894.301 597.591L888.056 593.686L885.558 590.896L883.684 586.991L883.06 584.201L883.684 571.927L885.558 561.326L888.68 552.957L892.427 547.378L898.048 542.357L905.542 539.009L911.163 537.894ZM911.787 550.168L906.167 552.4L903.668 555.189L900.546 564.116L898.672 573.601V583.085L899.921 585.317L905.542 587.549H911.787L916.783 585.875L920.53 581.969L922.404 578.064L926.151 560.21V554.631L922.404 550.726L921.155 550.168H911.787Z" fill="#7B7B7B"/>
<path d="M685.089 537.894H698.829L705.074 539.567L708.821 541.799L713.192 546.262L715.69 552.4V558.537L713.192 559.653L700.078 559.095L698.204 551.842L696.331 550.726L689.461 550.168L683.216 551.284L680.718 552.4L680.093 556.863L683.216 559.653L691.959 562.442L700.702 564.674L707.572 569.137L710.694 573.601L711.319 575.274V581.969L708.821 586.991L705.074 592.012L698.829 595.918L689.461 598.707L685.089 599.265H675.722L669.477 598.149L663.856 595.36L658.86 590.338L656.362 583.643V578.064L657.611 576.948L671.35 576.39L673.224 584.201L676.971 586.433L680.093 586.991H686.963L693.208 584.759L695.082 582.527L694.457 578.622L691.334 576.948L676.971 572.485L668.228 568.579L665.105 564.116L664.48 562.442V554.073L666.979 549.052L670.726 544.589L676.346 540.683L681.967 538.451L685.089 537.894Z" fill="#7B7B7B"/>
<path d="M778.766 539.009H794.379L793.754 545.704L790.632 561.884H810.616L814.363 540.683L814.988 539.009H830.601L826.854 560.21L820.608 592.57L819.359 597.591L818.735 598.149H804.996L804.371 597.591L804.996 592.012L808.118 573.043L788.758 573.601L787.509 576.39L784.387 596.475L783.138 598.149H768.774L769.398 590.896L775.019 560.21L778.766 539.009Z" fill="#7B7B7B"/>
<path d="M1006.09 539.009H1042.93L1047.93 540.125L1053.55 543.473L1056.67 546.82L1058.55 551.284V556.305L1056.67 561.884L1052.93 567.463L1048.56 570.811L1041.06 573.601L1030.44 574.716L1014.83 575.274L1011.08 597.591L1010.46 598.149H996.096L995.472 597.591L996.096 591.454L1001.09 564.116L1004.21 547.378L1005.46 540.125L1006.09 539.009ZM1019.83 550.726L1018.58 552.957L1017.33 562.442L1017.95 563H1034.19L1039.19 561.884L1042.31 558.537V552.399L1041.69 551.284L1039.81 550.726H1019.83Z" fill="#7B7B7B"/>
</svg>
