<svg width="1174" height="237" viewBox="0 0 1174 237" fill="none" xmlns="http://www.w3.org/2000/svg">
<path fill-rule="evenodd" clip-rule="evenodd" d="M0 228.767C0 233.701 1.30814 235 6.01744 235H38.9826C43.9535 235 45 233.961 45 229.027V6.71365C45 2.29856 43.6919 1 39.5058 1C28.5174 1 17.5291 1 6.5407 1C0.784884 1 0 2.03885 0 7.7525C0 7.7525 0 191.888 0 228.767Z" fill="white"/>
<path fill-rule="evenodd" clip-rule="evenodd" d="M1067.11 64.8901C1076.23 64.3689 1084.58 63.8477 1093.18 63.5871C1105.17 63.3265 1117.43 63.3265 1129.42 65.4113C1151.59 69.3204 1164.62 81.5687 1169.84 103.459C1172.44 114.665 1173.49 126.132 1173.75 137.598C1174.27 155.319 1174.27 173.04 1170.88 190.761C1168.53 202.749 1164.36 213.955 1154.71 222.294C1147.41 228.549 1138.81 231.415 1129.68 233.24C1117.69 235.585 1105.44 236.367 1093.18 235.846C1078.84 235.324 1064.24 234.282 1049.9 233.24C1042.6 232.718 1035.56 231.415 1028.26 230.373C1024.35 229.852 1022.78 227.767 1022.26 223.858C1022 222.555 1022 221.513 1022 220.209C1022 149.586 1022 78.9627 1022 8.07869C1022 7.29688 1022 6.51507 1022 5.73327C1022.26 0.781809 1023.04 0 1028.26 0H1060.33C1066.06 0 1066.85 0.781809 1066.85 6.51507C1066.85 24.7573 1066.85 42.9995 1066.85 60.9811V64.8901H1067.11ZM1067.11 195.452C1081.19 197.016 1095.01 198.579 1109.09 196.495C1116.65 195.452 1122.64 191.543 1125.25 184.246C1126.55 180.598 1127.6 176.689 1127.86 172.78C1128.38 159.489 1128.38 146.459 1128.38 133.168C1128.38 129.259 1127.6 125.35 1126.82 121.441C1124.21 109.453 1117.95 103.981 1105.7 103.459C1093.18 102.938 1080.93 102.938 1068.41 102.678C1068.15 102.678 1067.63 102.938 1067.11 102.938V195.452Z" fill="white"/>
<path fill-rule="evenodd" clip-rule="evenodd" d="M506.506 134.742C506.506 129.264 507.029 123.786 506.506 118.569C505.199 110.222 498.663 105.004 489.25 103.7C485.067 103.178 480.622 102.917 476.177 102.917C459.444 102.917 442.972 102.917 426.239 102.917C419.18 102.917 418.918 102.657 418.918 95.8741C418.918 88.57 418.918 81.2659 418.918 73.7009C418.918 70.5706 420.226 69.0054 423.363 68.4837C448.724 63.7882 474.086 63.0056 499.709 65.0925C510.428 65.8751 520.625 68.2229 530.299 72.9184C542.588 79.179 549.124 89.6135 550.954 102.917C551.739 107.874 552 113.091 552 118.308C552 151.698 552 184.828 552 218.218C552 219.001 552 219.522 552 220.044C551.739 227.609 549.385 229.696 542.065 231.261C520.625 235.435 498.663 236.739 476.7 237C464.412 237 451.862 236.739 439.573 234.391C422.317 231 411.336 221.087 407.937 203.61C405.323 190.045 405.061 176.219 408.983 162.915C413.166 149.09 423.102 141.003 436.959 138.134C445.326 136.308 454.215 135.525 462.843 135.003C476.439 134.482 489.773 135.003 503.369 134.742H506.506ZM506.768 164.481C492.649 164.481 478.792 163.959 464.673 164.481C456.307 164.741 452.123 169.437 451.078 177.524C450.555 180.654 450.816 184.306 451.339 187.436C452.123 193.697 456.045 197.61 462.32 198.914C466.765 199.697 471.21 200.219 475.916 200.219C486.374 200.479 496.833 199.697 507.029 197.349V164.481H506.768Z" fill="white"/>
<path fill-rule="evenodd" clip-rule="evenodd" d="M319.699 103.175C312.369 103.435 305.04 105.257 300.59 112.024C297.187 116.709 296.14 122.435 295.616 127.9C294.307 142.735 294.307 157.831 295.616 172.666C296.14 179.172 297.448 185.679 302.422 190.884C307.134 196.09 313.416 197.651 319.961 197.651C337.499 197.911 354.776 197.911 372.314 198.172C373.362 198.172 374.409 198.172 375.456 198.172C380.691 198.432 381.738 199.473 382 204.678C382 211.706 382 218.733 382 225.5C382 230.445 380.429 232.006 375.456 233.047C354.776 236.951 333.834 237.472 312.631 236.691C300.066 236.17 287.501 234.609 275.983 228.883C266.56 224.198 260.277 216.651 256.351 207.021C251.639 195.309 250.068 182.816 250.068 170.323C249.806 152.625 250.33 134.667 251.115 116.969C251.639 107.339 253.995 97.9698 258.706 89.1208C263.68 79.7513 271.271 73.5049 281.219 69.8612C291.166 66.2175 301.375 64.9162 311.846 64.3957C329.646 63.6149 347.446 63.8751 364.985 66.2175C368.912 66.7381 372.838 67.2586 376.765 68.0394C379.906 68.5599 381.738 70.3818 381.738 73.5049C381.738 81.5731 381.738 89.9016 381.738 97.9698C381.738 101.093 380.168 102.655 377.026 102.655H347.446C347.446 102.655 328.861 102.915 319.699 103.175Z" fill="white"/>
<path fill-rule="evenodd" clip-rule="evenodd" d="M890.757 164.811C891.798 171.093 892.318 176.59 893.619 182.086C895.701 190.985 902.467 194.912 911.054 195.959C916.779 196.482 922.503 197.006 928.228 197.006C944.362 197.006 960.755 197.006 976.889 197.006C982.874 197.006 983.654 198.052 983.654 203.811C983.654 211.14 983.654 218.207 983.654 225.535C983.654 230.247 982.613 231.294 977.929 232.079C954.51 236.267 930.83 236.528 907.151 235.482C897.002 235.22 886.594 233.649 876.966 229.723C862.133 223.965 854.067 212.187 850.163 197.267C847.301 186.536 846 175.543 846 164.55C846 148.845 846.26 132.879 847.301 117.174C847.822 108.013 850.163 98.8524 853.806 90.4767C860.052 76.6044 871.241 69.0139 885.553 65.6113C905.329 61.1617 925.626 61.1617 945.663 63.7791C952.428 64.5643 959.454 66.1348 965.699 68.4904C979.751 73.7253 987.297 84.9801 991.2 98.8524C994.583 110.893 995.364 123.456 995.884 135.758C996.145 142.825 995.884 149.892 995.884 156.959C995.884 161.932 994.063 163.764 989.119 164.288C987.037 164.55 984.955 164.55 982.874 164.55C953.729 164.55 924.585 164.55 895.441 164.55H890.757V164.811ZM951.648 134.973C950.867 128.429 950.086 122.409 948.785 116.389C947.484 110.107 943.321 105.396 937.076 103.564C926.667 100.423 916.258 100.685 905.85 103.564C901.946 104.611 898.824 106.966 896.482 110.369C891.538 117.96 891.278 126.597 891.278 135.235H951.648V134.973Z" fill="white"/>
<path fill-rule="evenodd" clip-rule="evenodd" d="M224.461 141.079C224.201 128.338 223.421 115.077 220.04 101.816C216.138 87.5146 208.335 76.3336 194.29 70.353C186.488 66.9727 177.904 65.4126 169.321 64.8926C157.617 64.3725 145.653 64.1125 133.948 64.3725C123.284 64.6325 112.881 65.9327 102.737 69.573C92.5933 73.2133 84.7904 79.7139 79.5886 89.3347C73.8665 100.256 71.7857 112.217 71.0054 124.438C70.2251 138.479 69.965 152.52 70.4852 166.561C70.7453 176.442 72.3059 186.063 74.1266 195.944C75.6871 205.045 79.5886 213.626 86.0909 220.386C94.414 228.967 105.338 232.607 116.782 234.427C131.607 236.768 146.693 236.768 161.779 235.988C171.922 235.468 182.066 234.167 191.689 230.787C199.492 227.927 205.995 223.506 210.936 217.006C216.398 209.725 218.999 201.665 220.82 193.084C223.421 181.123 223.941 169.162 223.941 156.421L224.461 141.079ZM179.725 156.421C179.205 163.441 178.685 170.982 177.384 178.263C175.303 189.964 169.841 194.904 158.137 196.984C150.334 198.284 142.271 198.284 134.469 196.724C124.325 194.644 119.123 188.923 117.042 178.002C114.701 164.221 114.961 150.18 115.482 136.139C115.742 131.978 116.262 127.818 116.782 123.918C119.123 110.657 124.325 104.936 137.59 103.636C145.132 102.856 152.935 103.116 160.478 104.156C170.882 105.716 176.344 112.477 177.904 124.698C178.945 131.978 179.205 139.519 179.725 147.58V156.421Z" fill="white"/>
<path d="M617.465 70.8728C616.684 67.2325 615.904 65.6724 613.043 65.6724H612.783C612.523 65.6724 612.523 65.6724 612.263 65.6724C606.281 65.6724 587.294 65.6724 578.711 65.6724C577.41 65.6724 576.37 65.6724 575.589 65.6724C575.069 65.6724 574.549 65.6724 574.029 65.6724H573.769H573.509C573.249 65.6724 572.989 65.6724 572.728 65.6724C572.728 65.6724 572.728 65.6724 572.468 65.6724C572.208 65.6724 572.208 65.6724 571.948 65.9324C571.688 65.9324 571.688 66.1924 571.688 66.1924L571.428 66.4524C571.428 66.4524 571.428 66.7125 571.168 66.7125C571.168 66.9725 570.908 66.9725 570.908 67.2325C570.908 67.2325 570.908 67.4925 570.648 67.7525C570.648 68.0126 570.648 68.2726 570.648 68.2726C570.648 68.2726 570.648 68.5326 570.648 68.7926C570.648 69.3127 570.648 69.8327 570.908 70.3528C570.908 71.1328 571.168 71.9129 571.428 72.693C573.509 80.2336 584.173 118.977 594.056 154.34C594.056 154.6 594.056 154.6 594.316 154.86C603.16 186.323 611.222 215.706 612.003 218.306C615.124 227.407 621.366 234.947 631.25 234.947C631.25 234.947 638.532 208.685 647.116 177.222C634.111 131.978 618.505 75.2932 617.465 70.8728Z" fill="white"/>
<path d="M723.584 69.8325C723.584 69.3124 723.324 69.0524 723.324 68.5323C723.063 67.7523 722.803 67.2322 722.543 66.9722C722.543 66.9722 722.543 66.9722 722.543 66.7122L722.283 66.4521C722.283 66.4521 722.283 66.7122 722.543 66.7122C722.543 66.9722 722.803 66.9722 722.803 67.2322C722.803 67.2322 722.803 67.4922 723.063 67.7523C723.063 68.0123 723.063 68.2723 723.063 68.2723C723.063 68.2723 723.063 68.5323 723.063 68.7924C723.063 69.3124 723.063 69.8324 722.803 70.3525C722.803 71.1326 722.543 71.9126 722.283 72.6927C720.202 80.2334 709.799 118.457 699.915 153.56C699.915 153.82 699.915 154.08 700.175 154.34C700.175 154.6 700.175 154.6 700.435 154.86C709.278 186.323 717.341 215.705 718.122 218.305C721.243 227.406 727.485 234.947 737.369 234.947C737.369 234.947 740.75 222.726 745.432 205.304C747.252 198.284 749.593 190.483 751.674 182.422C752.194 180.862 752.454 179.302 752.974 177.482C740.75 133.538 725.664 77.6331 723.584 69.8325Z" fill="white"/>
<path d="M829.442 68.5319C829.442 68.2718 829.442 68.2719 829.442 68.0118C829.442 67.7518 829.442 67.4918 829.182 67.4918C829.182 67.2318 828.922 67.2318 828.922 66.9717C828.922 66.9717 828.922 66.7117 828.662 66.7117L828.402 66.4517L828.142 66.1917C827.882 66.1917 827.881 65.9316 827.621 65.9316C827.621 65.9316 827.621 65.9316 827.361 65.9316C827.101 65.9316 826.841 65.9316 826.581 65.9316C826.321 65.9316 826.321 65.9316 826.321 65.9316H826.061C825.541 65.9316 825.281 65.9316 824.5 65.9316C823.72 65.9316 822.68 65.9316 821.379 65.9316C812.796 65.9316 794.069 65.9316 787.827 65.9316C787.567 65.9316 787.567 65.9316 787.307 65.9316H787.047C784.186 66.1917 783.405 67.7518 782.625 71.1321C781.585 75.5525 765.979 132.497 753.234 178.261C752.714 179.822 752.454 181.642 751.934 183.202C749.593 191.523 747.512 199.323 745.692 206.084C740.75 223.766 737.629 235.727 737.629 235.727H769.1C778.984 235.727 785.486 228.186 788.347 219.085C789.127 216.485 797.45 187.102 806.034 155.64C806.034 155.379 806.034 155.38 806.294 155.119C816.177 119.756 826.841 81.013 828.922 73.4723C829.182 72.6922 829.442 71.9122 829.442 71.1321C829.442 70.6121 829.702 70.092 829.702 69.572C829.442 68.7919 829.442 68.5319 829.442 68.5319Z" fill="white"/>
<path d="M723.063 68.5319C723.063 68.2718 723.063 68.2719 723.063 68.0118C723.063 67.7518 723.063 67.4918 722.803 67.4918C722.803 67.2318 722.543 67.2318 722.543 66.9717C722.543 66.9717 722.543 66.7117 722.283 66.7117L722.023 66.4517L721.763 66.1917C721.503 66.1917 721.503 65.9316 721.243 65.9316C721.243 65.9316 721.243 65.9316 720.983 65.9316C720.722 65.9316 720.462 65.9316 720.202 65.9316C719.942 65.9316 719.942 65.9316 719.942 65.9316H719.682C719.162 65.9316 718.902 65.9316 718.122 65.9316C717.341 65.9316 716.301 65.9316 715 65.9316C706.417 65.9316 687.69 65.9316 681.448 65.9316C681.188 65.9316 681.188 65.9316 680.928 65.9316H680.668C677.807 66.1917 677.027 67.7518 676.246 71.1321C675.206 75.5525 659.6 132.497 646.856 178.001C638.272 209.464 630.99 235.467 630.99 235.727C630.99 235.727 630.99 235.727 631.25 235.727H662.721C662.721 235.727 662.721 235.727 662.981 235.727C672.865 235.727 679.107 228.186 682.228 219.085C683.009 216.485 691.332 187.102 699.915 155.64C699.915 155.379 699.915 155.38 700.175 155.119C710.059 119.756 720.722 81.013 722.803 73.4723C723.063 72.6922 723.323 71.9122 723.323 71.1321C723.323 70.6121 723.583 70.092 723.583 69.572C723.063 68.7919 723.063 68.5319 723.063 68.5319Z" fill="white"/>
</svg>
