<svg width="1135" height="229" viewBox="0 0 1135 229" fill="none" xmlns="http://www.w3.org/2000/svg">
<path d="M37.1902 151.073C37.1902 164.214 40.0781 174.315 43.8489 180.419C48.7924 188.415 56.1699 191.807 63.6862 191.807C73.3841 191.807 82.2497 189.398 99.3504 165.752C113.046 146.798 129.188 120.201 140.046 103.516L158.434 75.255C171.209 55.6321 185.989 33.8148 202.951 19.0346C216.785 6.96574 231.717 0.256592 246.749 0.256592C271.971 0.256592 296.008 14.8729 314.395 42.2895C334.523 72.3165 344.296 110.137 344.296 149.169C344.296 172.373 339.718 189.423 331.937 202.892C324.421 215.919 309.767 228.934 285.112 228.934V191.794C306.223 191.794 311.482 172.398 311.482 150.203C311.482 118.574 304.105 83.4648 287.861 58.3813C276.335 40.587 261.391 29.7162 244.946 29.7162C227.164 29.7162 212.863 43.1218 196.784 67.0325C188.234 79.7319 179.456 95.2183 169.607 112.685L158.761 131.904C136.969 170.545 131.446 179.335 120.562 193.863C101.469 219.287 85.1629 228.934 63.6988 228.934C38.2369 228.934 22.1325 217.912 12.1571 201.29C3.99773 187.759 0 169.99 0 149.736L37.1902 151.073Z" fill="white"/>
<path d="M29.3208 44.9255C46.371 18.6439 70.9753 0.269531 99.199 0.269531C115.543 0.269531 131.786 5.11223 148.748 18.9592C167.312 34.1052 187.086 59.0374 211.766 100.15L220.619 114.905C241.982 150.493 254.127 168.792 261.239 177.431C270.382 188.516 276.789 191.82 285.112 191.82C306.223 191.82 311.482 172.424 311.482 150.228L344.284 149.194C344.284 172.399 339.706 189.449 331.925 202.918C324.408 215.945 309.754 228.96 285.1 228.96C269.777 228.96 256.195 225.63 241.188 211.468C229.648 200.597 216.155 181.29 205.776 163.924L174.904 112.345C159.417 86.4539 145.204 67.1589 136.969 58.4194C128.116 49.0241 116.754 37.6742 98.5937 37.6742C83.9017 37.6742 71.4293 47.9774 60.9873 63.7539L29.3208 44.9255Z" fill="url(#paint0_linear_1586_550)"/>
<path d="M98.5937 37.6486C83.9018 37.6486 71.4294 47.9519 60.9874 63.7284C46.2198 86.0122 37.1902 119.192 37.1902 151.073C37.1902 164.214 40.0781 174.315 43.8489 180.419L12.1445 201.303C3.99773 187.759 0 169.99 0 149.736C0 112.924 10.1015 74.5487 29.3209 44.9126C46.3711 18.631 70.9754 0.256592 99.1991 0.256592L98.5937 37.6486Z" fill="url(#paint1_linear_1586_550)"/>
<path d="M416.57 7.49585H459.586L532.731 139.812L605.888 7.49585H647.971V224.924H612.874V58.2808L548.722 173.673H515.794L451.654 58.2808V224.912H416.557V7.49585H416.57ZM757.928 88.5601C732.756 88.5601 717.61 107.502 713.978 130.959H799.393C797.627 106.796 783.692 88.5601 757.928 88.5601ZM679.184 144.314C679.184 94.9666 711.077 59.0501 758.533 59.0501C805.219 59.0501 833.09 94.5126 833.09 146.95V156.584H713.978C718.203 182.097 735.139 199.286 762.43 199.286C784.209 199.286 797.817 192.64 810.73 180.483L829.37 203.309C811.802 219.464 789.468 228.771 761.181 228.771C709.804 228.796 679.184 191.328 679.184 144.314ZM875.64 91.6751H843.343V62.9469H875.64V15.4283H909.501V62.9469H958.571V91.6751H909.501V164.504C909.501 189.373 917.446 198.201 936.993 198.201C945.909 198.201 951.029 197.432 958.583 196.183V224.609C949.175 227.27 940.196 228.493 930.473 228.493C893.926 228.493 875.652 208.517 875.652 168.552L875.64 91.6751ZM1101.14 119.621C1094.34 102.458 1079.17 89.8086 1056.87 89.8086C1027.91 89.8086 1009.36 110.365 1009.36 143.847C1009.36 176.497 1026.43 198.05 1055.49 198.05C1078.33 198.05 1094.63 184.758 1101.14 168.225V119.621ZM1135 224.912H1101.77V202.237C1092.48 215.592 1075.58 228.796 1048.2 228.796C1004.16 228.796 974.738 191.933 974.738 143.847C974.738 95.3071 1004.88 59.0501 1050.06 59.0501C1072.41 59.0501 1089.93 67.9788 1101.77 83.7553V62.9469H1135V224.912Z" fill="white"/>
<defs>
<linearGradient id="paint0_linear_1586_550" x1="74.6326" y1="108.676" x2="311.689" y2="120.649" gradientUnits="userSpaceOnUse">
<stop stop-color="white"/>
<stop offset="0.0001" stop-color="white"/>
<stop offset="0.0002" stop-color="white"/>
<stop offset="1" stop-color="white"/>
</linearGradient>
<linearGradient id="paint1_linear_1586_550" x1="49.597" y1="166.682" x2="49.597" y2="79.2829" gradientUnits="userSpaceOnUse">
<stop stop-color="white"/>
<stop offset="1" stop-color="white"/>
</linearGradient>
</defs>
</svg>
