<svg width="418" height="390" viewBox="0 0 418 390" fill="none" xmlns="http://www.w3.org/2000/svg">
<path d="M159.675 150.979C181.202 158.747 203.197 164.602 224.911 171.469C241.478 176.761 257.857 182.728 273.3 191.848C291.739 202.768 307.744 217.292 319.724 237.783C327.493 251.293 335.635 264.579 343.404 277.976C361.374 308.712 384.586 332.581 411.167 351.946C413.133 353.409 415.379 354.423 417.532 355.661C417.719 355.323 417.906 354.986 418 354.648C416.596 353.072 415.192 351.495 413.788 349.919C407.704 342.826 401.246 336.184 395.537 328.64C381.31 309.726 370.921 287.771 361.374 265.141C353.793 247.128 346.68 228.889 338.63 211.212C328.803 189.708 315.887 171.244 298.946 157.171C282.473 143.548 264.035 136.117 244.847 130.6C224.818 124.859 204.601 119.792 184.571 114.163C165.478 108.871 146.665 102.116 128.788 92.5462C110.163 82.526 91.8178 71.7177 73.5665 60.6842C60.3695 52.6906 47.5468 43.7962 35.5665 33.213C23.7734 22.7425 10.1084 14.974 1.12316 0C0.74878 0.112587 0.374384 0.337787 0 0.450374C0.374384 2.25176 0.468003 4.39089 1.31037 5.85452C7.86209 16.6628 14.133 27.8089 21.2463 38.0543C39.7783 64.7373 60.6502 88.3805 84.7044 107.745C108.103 126.322 132.906 141.296 159.675 150.979ZM416.222 383.92C408.734 377.278 400.872 371.198 393.571 364.218C369.892 341.137 349.862 314.004 330.768 285.632C318.882 268.069 307.65 249.83 293.517 234.518C281.631 221.57 268.621 210.762 253.084 205.471C238.483 200.404 223.601 196.464 208.719 192.411C193.276 188.245 177.739 184.867 162.389 180.364C141.143 174.059 120.645 164.939 100.897 153.568C83.0197 143.21 66.0788 131.051 51.9458 113.712C50.7291 112.249 49.2316 111.123 47.8276 109.772C47.5468 109.997 47.266 110.222 46.9852 110.447C47.3596 111.798 47.6404 113.15 48.1084 114.388C56.4384 134.316 66.734 152.555 79.7438 168.317C89.197 179.801 99.0246 191.059 109.507 201.08C127.197 218.08 148.443 226.749 169.877 233.955C182.512 238.233 195.709 240.035 208.626 243.074C219.389 245.664 230.34 247.69 240.823 251.406C258.325 257.598 274.049 268.519 288.557 281.692C302.222 294.076 315.419 307.249 328.896 320.196C354.823 345.078 382.34 367.032 411.729 385.497C413.227 386.51 415.005 387.073 416.596 387.861C416.877 387.523 417.158 387.298 417.345 386.96C417.251 385.947 416.97 384.483 416.222 383.92ZM380.374 386.96C378.222 385.046 375.975 383.132 373.635 381.331C365.493 374.801 356.975 368.946 349.113 361.853C326.837 341.813 304.936 321.21 282.66 301.169C268.621 288.559 253.365 278.539 236.798 271.559C223.788 266.042 210.217 263.227 196.739 260.413C178.581 256.697 160.33 253.095 142.734 246.227C124.67 239.247 108.01 229.677 96.3104 210.649C95.6552 209.636 94.7192 208.961 93.8768 208.06C93.6896 208.173 93.4089 208.398 93.2217 208.51C93.6897 210.087 93.9704 211.663 94.532 213.126C104.36 236.319 117.837 255.909 135.808 270.658C154.621 286.083 175.961 293.513 197.862 299.48C209.842 302.745 222.01 305.447 233.897 309.501C262.443 319.183 289.586 333.256 315.98 349.244C335.635 361.178 355.01 373.788 374.571 385.947C376.911 387.411 379.438 388.649 381.872 390C382.059 389.775 382.153 389.55 382.34 389.212C381.778 388.649 381.217 387.636 380.374 386.96Z" fill="#7B7B7B"/>
</svg>
