<svg width="364" height="367" viewBox="0 0 364 367" fill="none" xmlns="http://www.w3.org/2000/svg">
<path d="M181.985 296.093V367C301.23 367 393.894 250.961 354.897 124.95C346.374 97.7558 331.479 73.0306 311.471 52.8652C291.463 32.6998 266.931 17.6875 239.949 9.0979C115.133 -30.2056 0 63.3741 0 183.37H70.3533C70.3533 108.105 144.421 49.8719 223.051 78.5607C237.492 83.8704 250.607 92.2979 261.477 103.253C272.346 114.208 280.708 127.426 285.976 141.981C314.627 221.149 256.795 295.719 182.197 295.879V225.374H112.029V296.093H181.985Z" fill="#7B7B7B"/>
<path d="M112.029 350.557H57.9645V296.093H112.029V350.557ZM12.7866 296.093H57.9645V250.533H12.7866V296.093Z" fill="#C0C0C0"/>
</svg>
