<svg width="1210" height="419" viewBox="0 0 1210 419" fill="none" xmlns="http://www.w3.org/2000/svg">
<path d="M207.91 415.433V334.89C293.25 334.89 359.478 250.331 326.716 160.592C314.706 127.613 288.053 101.004 254.818 88.9914C165.009 56.4857 80.3857 122.455 80.3857 207.706H0C0 71.7635 131.647 -34.2118 274.15 10.3062C336.393 29.8534 386.119 79.31 405.45 141.506C450.003 284.014 343.923 415.433 207.91 415.433Z" fill="white"/>
<path fill-rule="evenodd" clip-rule="evenodd" d="M208.141 255.027V335.34H127.767V255.027H208.141ZM127.767 335.34V396.705H66.2392V335.224L127.767 335.34ZM66.2392 335.34H14.6196V283.76H66.2392V335.34Z" fill="white"/>
<path d="M620.751 24.7647C602.506 11.9217 579.179 5.7021 552.618 5.7021H494.566V190.097H553.149C579.687 190.097 602.806 183.462 621.283 169.788C631.237 162.865 639.113 152.803 644.921 140.364C650.314 127.936 653.213 113.016 653.213 96.8611C653.213 80.7063 650.326 66.2017 644.921 53.7741C639.113 41.3464 631.237 31.3882 620.867 24.7647H620.751ZM528.691 36.7654H546.937C567.261 36.7654 583.844 40.9195 596.593 48.7661C610.682 57.4666 617.726 73.6329 617.726 96.8265C617.726 120.862 610.797 137.848 596.593 146.964C584.583 154.834 567.977 158.965 547.248 158.965H528.587V36.6846L528.691 36.7654ZM693.319 3.22119C687.511 3.22119 682.949 5.29823 678.803 9.02537C676.916 10.8476 675.426 13.0396 674.427 15.464C673.427 17.8885 672.94 20.4931 672.995 23.1146C672.995 28.9188 675.073 33.4767 678.803 37.6193C682.533 41.3464 687.511 43.4235 693.319 43.4235C698.716 43.3796 703.898 41.3075 707.835 37.6193C711.565 33.8922 713.644 28.9188 713.644 23.1146C713.699 20.4931 713.211 17.8885 712.211 15.464C711.212 13.0396 709.722 10.8476 707.835 9.02537C703.678 5.29823 698.597 3.22119 693.319 3.22119ZM676.713 59.9936H709.475V190.097H676.713V59.9936ZM828.5 70.7596C818.546 62.0591 807.771 56.6819 795.738 56.6819C777.493 56.6819 762.561 62.913 750.955 75.3291C739.349 87.3298 733.125 103.092 733.125 122.155C733.125 140.387 738.934 156.138 750.539 168.565C762.145 180.566 777.493 186.797 795.323 186.797C807.76 186.797 818.961 183.485 827.657 176.435V179.32C827.657 190.097 824.77 198.382 818.95 204.186C813.13 209.991 805.266 212.887 795.311 212.887C780.38 212.887 770.829 207.083 759.235 191.343L736.832 212.887L737.248 213.718C742.213 220.353 749.258 226.988 759.224 233.196C768.762 239.427 781.199 242.727 795.715 242.727C815.208 242.727 830.96 236.923 842.577 224.911C854.194 212.898 859.992 197.148 859.992 177.67V59.5782H827.657V70.7712L828.5 70.7596ZM819.908 147.829C814.1 154.464 806.628 157.361 797.505 157.361C787.967 157.361 780.922 154.049 775.102 147.829C769.294 141.194 766.811 132.909 766.811 122.443C766.811 111.666 769.698 103.381 775.102 96.7573C780.507 90.1338 788.382 87.2259 797.505 87.2259C807.044 87.2259 814.088 90.5377 819.908 96.7573C825.717 103.392 828.616 112.104 828.616 122.443C828.616 132.782 825.729 141.091 819.908 147.829ZM888.619 59.9936H921.381V190.097H888.619V59.9936ZM905.214 3.22119C899.405 3.22119 894.843 5.29823 890.698 9.02537C888.811 10.8476 887.321 13.0396 886.321 15.464C885.322 17.8885 884.834 20.4931 884.889 23.1146C884.889 28.9188 886.968 33.4767 890.698 37.6193C894.428 41.3464 899.405 43.4235 905.214 43.4235C910.61 43.3796 915.792 41.3075 919.729 37.6193C923.459 33.8922 925.538 28.9188 925.538 23.1146C925.593 20.4931 925.105 17.8885 924.106 15.464C923.106 13.0396 921.616 10.8476 919.729 9.02537C915.572 5.29823 911.022 3.22119 905.214 3.22119ZM993.128 24.7647H960.794V59.9821H942.132V89.8107H960.794V143.675C960.794 160.661 964.108 172.685 970.748 179.723C977.389 186.762 989.41 190.086 1005.99 190.086L1021.76 189.67H1023.42V159.842L1012.22 160.257C1004.34 160.257 999.364 159.011 996.858 156.103C994.353 153.195 993.128 147.414 993.128 138.713V89.4184H1023.81V59.5898H993.128V24.7993V24.7647ZM1177.24 5.29824H1210V190.097H1177.24V5.29824Z" fill="white"/>
<path d="M1136.19 69.9173C1126.23 61.6322 1112.55 57.0742 1095.54 57.0742C1084.75 57.0742 1074.4 59.5551 1065.28 63.9977C1056.57 68.1518 1048.28 75.5945 1042.88 84.7104L1043.29 85.1258L1064.43 105.019C1073.13 91.3454 1082.67 86.372 1095.52 86.372C1102.45 86.372 1107.96 88.0337 1112.52 91.7608C1116.68 95.4879 1119.16 100.046 1119.16 105.839V112.07C1110.87 109.589 1103 108.343 1095.11 108.343C1078.94 108.343 1065.66 112.07 1055.85 119.535C1046.03 127.001 1040.91 138.183 1040.91 152.272C1040.91 164.7 1045.07 174.231 1053.77 181.697C1062.47 188.62 1072.84 192.474 1085.29 192.474C1097.74 192.474 1109.35 187.512 1120.12 178.8V189.578H1152.46V105.873C1151.21 90.5261 1146.22 78.11 1136.29 69.8249L1136.19 69.9173ZM1078.13 140.352C1081.86 137.871 1087.37 136.625 1093.9 136.625C1101.77 136.625 1110.06 138.287 1118.78 141.183V154.026C1111.85 160.661 1102.2 163.973 1090.58 163.973C1084.77 163.973 1080.63 162.726 1077.3 160.245C1075.85 159.122 1074.68 157.675 1073.89 156.02C1073.1 154.365 1072.7 152.548 1072.74 150.714C1072.62 148.662 1073.06 146.616 1074.01 144.792C1074.96 142.969 1076.38 141.435 1078.13 140.352V140.352Z" fill="white"/>
<path d="M787.25 369.011C781.442 375.646 775.241 381.439 770.667 384.358C766.094 387.277 760.297 388.916 753.669 388.916C744.13 388.916 736.254 385.604 730.03 378.138C723.794 371.215 720.491 361.568 720.491 350.791C720.491 339.598 723.806 330.482 730.03 323.443C736.254 316.404 744.119 312.666 753.669 312.666C764.039 312.666 775.229 319.301 784.768 330.482L806.328 309.769C792.239 291.537 774.398 282.837 752.837 282.837C735.007 282.837 719.348 289.472 706.391 302.315C693.434 315.158 687.314 331.324 687.314 350.779C687.314 370.234 693.954 386.412 706.391 399.244C719.244 412.11 734.568 418.86 752.814 418.86C776.453 418.86 795.542 408.498 808.799 389.851L787.227 369.011H787.25ZM922.016 303.55C917.454 296.915 911.23 291.953 903.354 288.203C895.478 284.452 886.355 282.398 876.401 282.398C858.155 282.398 843.224 289.033 832.034 302.292C821.248 315.562 815.451 331.717 815.451 351.183C815.451 371.077 821.687 387.231 833.281 399.647C845.291 412.075 861.065 418.295 880.558 418.295C902.534 418.295 920.78 409.063 934.464 391.778L935.296 390.947L913.736 370.234C911.657 372.715 908.77 375.196 906.276 377.688C902.961 380.573 900.04 383.077 896.737 384.612C891.584 387.154 885.9 388.431 880.154 388.339C870.916 388.339 863.571 385.858 857.751 380.469C852.358 375.508 849.044 368.873 848.212 360.576H934.88L935.296 348.575C935.296 340.29 934.049 332.005 931.982 324.539C929.915 317.073 926.589 310.035 922.027 303.423L922.016 303.55ZM850.279 334.209C851.942 327.978 854.841 322.612 858.987 318.862C863.548 314.304 869.357 312.227 875.985 312.227C883.861 312.227 890.074 314.304 894.231 318.862C898.139 323.066 900.483 328.484 900.871 334.209H850.279Z" fill="white"/>
<path d="M1047.66 295.16C1037.7 286.875 1024.02 282.317 1007.01 282.317C996.223 282.317 985.876 284.798 976.753 289.241C968.046 293.395 959.754 300.838 954.35 309.954L954.766 310.369L975.898 330.262C984.606 316.589 994.144 311.615 1007 311.615C1013.93 311.615 1019.43 313.277 1024 317.004C1028.15 320.731 1030.64 325.289 1030.64 331.082V337.313C1022.34 334.832 1014.47 333.586 1006.58 333.586C990.414 333.586 977.134 337.313 967.318 344.779C957.502 352.244 952.387 363.426 952.387 377.515C952.387 389.943 956.544 399.474 965.24 406.94C973.947 413.863 984.317 417.717 996.766 417.717C1009.21 417.717 1020.82 412.756 1031.59 404.044V414.821H1063.93V331.116C1062.68 315.769 1057.69 303.353 1047.76 295.068L1047.66 295.16ZM989.606 365.595C993.336 363.114 998.844 361.868 1005.37 361.868C1013.24 361.868 1021.54 363.53 1030.25 366.426V379.269C1023.33 385.904 1013.67 389.216 1002.05 389.216C996.246 389.216 992.1 387.97 988.774 385.489C987.323 384.365 986.155 382.918 985.363 381.263C984.571 379.608 984.177 377.791 984.213 375.957C984.096 373.905 984.535 371.859 985.484 370.036C986.433 368.212 987.857 366.678 989.606 365.595V365.595Z" fill="white"/>
<path d="M1188.64 297.641C1179.4 287.279 1166.66 282.294 1150.48 282.294C1137.63 282.294 1126.84 286.022 1118.96 293.487V285.618H1087.03V415.317H1119.79V343.625C1119.79 333.678 1122.27 325.808 1126.72 320.547C1131.16 315.285 1137.5 312.261 1146.21 312.261C1153.67 312.261 1159.06 314.742 1163.21 319.716C1167.35 324.689 1169.44 331.716 1169.44 340.025V415.433H1202.21V340.025C1202.21 322.208 1197.64 307.715 1188.52 297.757L1188.64 297.641ZM575.356 418.225C550.062 418.222 525.805 408.18 507.919 390.309C490.034 372.437 479.984 348.198 479.981 322.924C479.984 297.649 490.034 273.41 507.919 255.539C525.805 237.667 550.062 227.625 575.356 227.622C600.65 227.625 624.907 237.667 642.793 255.539C660.679 273.41 670.728 297.649 670.731 322.924C670.728 348.198 660.679 372.437 642.793 390.309C624.907 408.18 600.65 418.222 575.356 418.225ZM575.356 261.293C541.347 261.293 513.574 289.056 513.574 323.027C513.574 356.999 541.359 384.762 575.356 384.762C609.354 384.762 637.138 356.999 637.138 323.027C637.138 289.056 609.354 261.293 575.356 261.293Z" fill="white"/>
</svg>
