<svg width="316" height="320" viewBox="0 0 316 320" fill="none" xmlns="http://www.w3.org/2000/svg">
<path d="M294.93 130.971C302.19 109.181 299.69 85.3115 288.08 65.4915C270.62 35.0915 235.52 19.4515 201.24 26.8115C185.99 9.63148 164.08 -0.138516 141.11 0.00148423C106.07 -0.0785158 74.9802 22.4815 64.2002 55.8215C41.6902 60.4315 22.2602 74.5215 10.8902 94.4915C-6.6998 124.811 -2.6898 163.031 20.8102 189.031C13.5502 210.821 16.0502 234.691 27.6602 254.511C45.1202 284.911 80.2202 300.551 114.5 293.191C129.74 310.371 151.66 320.141 174.63 319.991C209.69 320.081 240.79 297.501 251.57 264.132C274.08 259.522 293.51 245.431 304.88 225.461C322.45 195.141 318.43 156.951 294.94 130.951L294.93 130.971ZM174.65 299.081C160.62 299.101 147.03 294.192 136.26 285.202C136.75 284.942 137.6 284.472 138.15 284.132L201.87 247.331C205.13 245.481 207.13 242.011 207.11 238.261V148.431L234.04 163.981C234.33 164.121 234.52 164.401 234.56 164.721V239.111C234.52 272.191 207.73 299.011 174.65 299.081ZM45.8102 244.051C38.7802 231.911 36.2502 217.681 38.6602 203.871C39.1302 204.151 39.9602 204.661 40.5502 205.001L104.27 241.801C107.5 243.691 111.5 243.691 114.74 241.801L192.53 196.881V227.981C192.55 228.301 192.4 228.611 192.15 228.811L127.74 266.001C99.0502 282.521 62.4102 272.701 45.8202 244.051H45.8102ZM29.0402 104.961C36.0402 92.8015 47.0902 83.5015 60.2502 78.6715C60.2502 79.2215 60.2202 80.1915 60.2202 80.8715V154.481C60.2002 158.221 62.2002 161.691 65.4502 163.541L143.24 208.451L116.31 224.001C116.04 224.181 115.7 224.211 115.4 224.081L50.9802 186.861C22.3502 170.281 12.5302 133.651 29.0302 104.971L29.0402 104.961ZM250.3 156.451L172.51 111.531L199.44 95.9915C199.71 95.8115 200.05 95.7815 200.35 95.9115L264.77 133.101C293.45 149.671 303.28 186.361 286.71 215.041C279.7 227.181 268.66 236.481 255.51 241.321V165.511C255.54 161.771 253.55 158.311 250.31 156.451H250.3ZM277.1 116.111C276.63 115.821 275.8 115.321 275.21 114.981L211.49 78.1815C208.26 76.2915 204.26 76.2915 201.02 78.1815L123.23 123.101V92.0015C123.21 91.6815 123.36 91.3715 123.61 91.1715L188.02 54.0115C216.71 37.4615 253.39 47.3115 269.93 76.0115C276.92 88.1315 279.45 102.321 277.08 116.111H277.1ZM108.59 171.541L81.6502 155.991C81.3602 155.851 81.1702 155.571 81.1302 155.251V80.8615C81.1502 47.7415 108.02 20.9015 141.14 20.9215C155.15 20.9215 168.71 25.8415 179.48 34.8015C178.99 35.0615 178.15 35.5315 177.59 35.8715L113.87 72.6715C110.61 74.5215 108.61 77.9815 108.63 81.7315L108.59 171.521V171.541ZM123.22 140.001L157.87 119.991L192.52 139.991V180.001L157.87 200.001L123.22 180.001V140.001Z" fill="white"/>
</svg>
