<svg width="1151" height="378" viewBox="0 0 1151 378" fill="none" xmlns="http://www.w3.org/2000/svg">
<path d="M1117.75 76.688V63.1149H1079.74V314.896H1117.75V109.942C1123.18 103.156 1128.6 99.0837 1134.71 98.405C1140.82 97.7264 1146.25 99.0837 1151 103.156V61.079C1137.43 60.4003 1125.89 65.8296 1117.75 76.688ZM1042.42 67.8656C1035.63 63.115 1028.16 61.079 1018.66 61.079C1005.09 61.079 994.231 66.5082 986.087 76.688V0H948.082V218.527C948.082 224.635 945.368 230.743 938.581 232.1C918.221 235.493 902.612 252.46 902.612 274.177C902.612 297.251 921.615 316.254 944.689 316.254C954.869 316.254 965.049 312.182 971.835 306.074L972.514 305.395C973.871 304.716 974.55 303.359 975.228 302.68C976.586 301.323 978.622 300.644 980.658 300.644C983.372 300.644 985.408 301.323 987.444 302.68C995.588 312.182 1006.45 316.932 1019.34 316.932H1020.7C1029.52 316.932 1037.66 314.896 1043.77 310.146C1049.88 306.074 1054.63 300.644 1057.35 295.215C1059.38 289.786 1060.74 281.642 1060.74 269.426V110.621C1060.74 97.7264 1059.38 88.2252 1056.67 82.796C1053.27 77.3668 1049.2 72.6162 1042.42 67.8656ZM1022.06 249.745V263.997C1022.06 268.748 1020.7 272.82 1017.31 275.534C1013.23 279.606 1008.48 280.963 1002.37 280.285C996.945 279.606 990.838 275.534 986.087 268.069V110.621C990.838 103.834 996.267 99.7623 1002.37 99.0837C1008.48 98.405 1013.91 99.7624 1017.31 103.834C1020.7 106.549 1022.06 110.621 1022.06 115.371V249.745Z" fill="white"/>
<path d="M966.406 274.177C966.406 286.393 956.905 295.894 944.689 295.894C932.473 295.894 922.972 286.393 922.972 274.177C922.972 261.961 932.473 252.46 944.689 252.46C956.226 252.46 966.406 261.961 966.406 274.177Z" fill="#ECECEC"/>
<path d="M69.9015 106.548C65.8296 102.476 60.4004 101.119 53.6138 102.476C48.1846 103.155 42.0767 107.227 36.6474 114.014V315.574H0V67.1864H36.6474V80.7595C44.7913 70.5797 55.6498 65.1504 69.2229 65.1504V106.548H69.9015ZM200.203 261.961C200.203 277.57 194.774 290.464 183.916 301.323C173.057 312.181 160.163 317.61 145.232 317.61C129.623 317.61 116.05 312.181 105.192 301.323C94.3331 290.464 88.9039 277.57 88.9039 261.961V121.479C88.9039 106.548 94.3331 92.9753 105.192 82.1168C116.05 71.2583 128.945 65.8291 144.554 65.8291C160.163 65.8291 173.057 71.2583 183.916 82.1168C194.774 92.9753 200.203 105.87 200.203 121.479V224.634H126.23V263.318C126.23 268.068 128.266 272.14 131.659 276.212C135.052 279.606 139.803 281.642 144.554 281.642C149.983 281.642 154.055 279.606 157.448 276.212C160.841 272.819 162.877 268.747 162.877 263.318V249.745H200.203V261.961ZM162.877 189.344V120.8C162.877 116.05 160.841 111.978 157.448 107.906C154.055 104.512 149.304 102.476 144.554 102.476C139.711 102.533 135.083 104.481 131.659 107.906C128.235 111.33 126.286 115.958 126.23 120.8V190.023H162.877V189.344ZM335.256 327.79C335.256 342.721 329.827 354.936 318.968 363.759C308.11 372.581 295.215 377.332 279.606 377.332C263.997 377.332 251.103 372.581 240.244 363.759C229.386 354.258 224.635 342.721 224.635 327.79H261.282C261.282 332.541 263.318 337.291 266.712 340.685C270.105 344.078 274.177 346.114 279.606 346.114C285.035 346.114 289.107 344.078 292.501 340.685C295.894 337.291 297.93 332.541 297.93 327.79V302.001C289.786 312.181 278.927 317.61 265.354 317.61C255.853 317.61 247.709 315.574 241.601 310.824C235.494 306.752 230.743 301.323 228.707 296.572C225.992 291.143 225.314 282.32 225.314 268.747V113.335C225.314 107.227 225.992 97.7259 228.707 85.5101C231.422 80.0808 235.493 75.3302 242.28 71.2583C248.388 67.1864 256.532 64.4718 266.033 64.4718C279.606 64.4718 290.465 69.901 298.608 80.0808V66.5077H335.935V327.79H335.256ZM298.608 268.747V113.335C293.179 106.548 287.75 103.155 282.321 101.798C276.213 101.119 270.784 102.476 267.39 105.191C263.997 108.584 261.961 112.656 261.961 117.407V263.997C261.961 268.747 263.318 272.14 266.033 275.534C270.105 279.606 275.534 280.963 281.642 279.606C287.071 278.927 293.179 275.534 298.608 268.747ZM360.366 314.896H397.692V67.1864H360.366V314.896ZM360.366 42.0761H397.692V5.42871H360.366V42.0761ZM531.387 246.351V261.961C531.387 277.57 525.958 290.464 515.1 301.323C504.241 312.181 491.347 317.61 476.416 317.61C460.807 317.61 447.913 312.181 437.054 301.323C426.196 290.464 420.088 277.57 420.088 261.961L420.766 243.637H458.093V262.639C458.093 267.39 460.129 271.462 463.522 275.534C466.915 278.927 471.666 280.963 476.416 280.963C481.167 280.963 485.239 278.927 489.311 275.534C492.704 272.14 494.74 267.39 494.74 262.639V254.495C494.74 248.387 494.061 240.244 492.704 230.064C491.347 225.992 487.275 220.563 479.81 213.776C479.81 213.776 473.702 209.025 461.486 200.203C456.735 196.81 449.27 190.702 439.09 181.879C433.661 176.45 428.91 168.306 424.16 158.805C422.124 155.412 421.445 149.982 421.445 143.874C421.445 135.052 420.766 130.301 420.766 128.944V120.122C420.766 104.512 426.874 91.618 437.054 80.7595C447.913 69.901 460.807 64.4718 476.416 64.4718C491.347 64.4718 504.92 69.901 515.778 80.7595C526.637 91.618 532.066 104.512 532.066 120.122V134.373H495.419V120.8C495.419 116.05 493.383 111.978 489.989 107.906C486.596 104.512 481.845 102.476 477.095 102.476C471.666 102.476 467.594 104.512 464.2 107.906C460.807 111.299 458.771 116.05 458.771 120.8V126.229C458.771 129.623 459.45 135.731 460.807 144.553C462.843 148.625 466.915 154.054 473.702 160.841C477.774 163.555 483.881 167.627 492.025 174.414C498.812 179.165 505.598 185.272 512.385 192.738C519.85 200.882 525.958 209.704 529.351 219.884C530.709 223.956 531.387 233.457 531.387 246.351ZM665.083 261.961C665.083 277.57 660.332 290.464 650.831 301.323C641.33 312.181 629.114 317.61 614.183 317.61C599.253 317.61 587.037 312.181 576.857 301.323C567.356 290.464 562.606 277.57 562.606 261.961V104.512H547.675V70.5796H562.606V35.2896H599.932V70.5796H663.047V104.512H599.932V263.318C599.932 275.534 604.682 281.642 614.183 281.642C623.685 281.642 627.756 275.534 627.756 263.318V173.735H665.083V261.961ZM752.629 106.548C748.557 102.476 743.128 101.119 736.341 102.476C730.233 103.155 724.804 107.227 719.375 114.014V315.574H682.049V67.1864H719.375V80.7595C727.519 70.5797 738.377 65.1504 751.95 65.1504V106.548H752.629ZM883.61 261.961C883.61 277.57 878.18 290.464 867.322 301.323C856.463 312.181 843.569 317.61 827.96 317.61C812.351 317.61 799.456 312.181 788.598 301.323C777.739 290.464 771.631 277.57 771.631 261.961L772.31 121.479C772.31 106.548 777.739 92.9753 788.598 82.1168C799.456 71.2583 812.351 65.8291 827.96 65.8291C843.569 65.8291 856.463 71.2583 867.322 82.1168C878.18 92.9753 883.61 105.87 883.61 121.479V261.961ZM846.284 262.639V120.8C846.284 116.05 844.248 111.978 840.854 107.906C837.461 104.512 832.71 102.476 827.96 102.476C822.531 102.476 818.459 104.512 815.065 107.906C811.672 111.299 809.636 116.05 809.636 120.8V263.318C809.636 268.068 811.672 272.14 815.065 276.212C818.459 279.606 823.209 281.642 827.96 281.642C832.71 281.642 837.461 279.606 840.854 276.212C844.248 272.14 846.284 267.39 846.284 262.639Z" fill="white"/>
</svg>
